<svg width="221" height="221" viewBox="0 0 221 221" fill="none" xmlns="http://www.w3.org/2000/svg">
<path d="M202.583 79.2653V154.24C202.584 161.884 199.659 169.238 194.409 174.795C189.16 180.351 181.983 183.688 174.351 184.121L172.656 184.167H48.3438C40.6996 184.167 33.345 181.242 27.7886 175.993C22.2323 170.743 18.8955 163.566 18.4627 155.934L18.4167 154.24V79.2653L107.296 125.823C108.284 126.34 109.384 126.611 110.5 126.611C111.616 126.611 112.716 126.34 113.705 125.823L202.583 79.2653ZM48.3438 36.8333H172.656C180.074 36.8324 187.228 39.5865 192.731 44.5615C198.233 49.5365 201.692 56.3778 202.436 63.7584L110.5 111.918L18.564 63.7584C19.2779 56.6709 22.4964 50.0704 27.6411 45.1434C32.7858 40.2165 39.5193 37.2862 46.631 36.8793L48.3438 36.8333H172.656H48.3438Z" fill="#857CBA"/>
</svg>