<svg width="81" height="81" viewBox="0 0 81 81" fill="none" xmlns="http://www.w3.org/2000/svg">
<path d="M74.25 29.052V56.5313C74.2502 59.333 73.1783 62.0286 71.2541 64.065C69.33 66.1015 66.6995 67.3245 63.9023 67.4831L63.2813 67.5H17.7188C14.917 67.5002 12.2215 66.4283 10.185 64.5041C8.14849 62.58 6.9255 59.9495 6.76688 57.1523L6.75 56.5313V29.052L39.3255 46.116C39.6879 46.3058 40.0909 46.405 40.5 46.405C40.9091 46.405 41.3121 46.3058 41.6745 46.116L74.25 29.052ZM17.7188 13.5H63.2813C66.0001 13.4997 68.6222 14.5091 70.6389 16.3325C72.6557 18.1559 73.9233 20.6634 74.196 23.3685L40.5 41.0198L6.804 23.3685C7.06564 20.7708 8.24529 18.3516 10.1309 16.5458C12.0165 14.74 14.4844 13.666 17.091 13.5169L17.7188 13.5H63.2813H17.7188Z" fill="#857CBA"/>
</svg>
