<svg width="81" height="81" viewBox="0 0 81 81" fill="none" xmlns="http://www.w3.org/2000/svg">
<path fill-rule="evenodd" clip-rule="evenodd" d="M40.5 0C18.1237 0 0 18.1237 0 40.5C0 58.4212 11.5931 73.5581 27.6919 78.9244C29.7169 79.2787 30.4762 78.0638 30.4762 77.0006C30.4762 76.0387 30.4256 72.8494 30.4256 69.4575C20.25 71.3306 17.6175 66.9769 16.8075 64.6988C16.3519 63.5344 14.3775 59.94 12.6562 58.9781C11.2388 58.2188 9.21375 56.3456 12.6056 56.295C15.795 56.2444 18.0731 59.2313 18.8325 60.4463C22.4775 66.5719 28.2994 64.8506 30.6281 63.7875C30.9825 61.155 32.0456 59.3831 33.21 58.3706C24.1987 57.3581 14.7825 53.865 14.7825 38.3737C14.7825 33.9694 16.3519 30.3244 18.9338 27.4894C18.5288 26.4769 17.1112 22.3256 19.3388 16.7569C19.3388 16.7569 22.7306 15.6938 30.4762 20.9081C33.7162 19.9969 37.1587 19.5413 40.6012 19.5413C44.0438 19.5413 47.4862 19.9969 50.7262 20.9081C58.4719 15.6431 61.8638 16.7569 61.8638 16.7569C64.0912 22.3256 62.6738 26.4769 62.2688 27.4894C64.8506 30.3244 66.42 33.9188 66.42 38.3737C66.42 53.9156 56.9531 57.3581 47.9419 58.3706C49.41 59.6362 50.6756 62.0662 50.6756 65.8631C50.6756 71.28 50.625 75.6338 50.625 77.0006C50.625 78.0638 51.3844 79.3294 53.4094 78.9244C61.4492 76.2099 68.4355 71.0427 73.3849 64.1499C78.3343 57.257 80.9976 48.9857 81 40.5C81 18.1237 62.8763 0 40.5 0Z" fill="#857CBA"/>
</svg>
