<svg width="221" height="221" viewBox="0 0 221 221" fill="none" xmlns="http://www.w3.org/2000/svg">
<path fill-rule="evenodd" clip-rule="evenodd" d="M110.5 0C49.4487 0 0 49.4488 0 110.5C0 159.396 31.6306 200.696 75.5544 215.337C81.0794 216.304 83.1512 212.989 83.1512 210.088C83.1512 207.464 83.0131 198.762 83.0131 189.508C55.25 194.618 48.0675 182.739 45.8575 176.524C44.6144 173.347 39.2275 163.54 34.5312 160.916C30.6637 158.844 25.1387 153.733 34.3931 153.595C43.095 153.457 49.3106 161.606 51.3825 164.921C61.3275 181.634 77.2119 176.938 83.5656 174.038C84.5325 166.855 87.4331 162.021 90.61 159.258C66.0237 156.496 40.3325 146.965 40.3325 104.699C40.3325 92.6819 44.6144 82.7369 51.6587 75.0019C50.5537 72.2394 46.6862 60.9131 52.7637 45.7194C52.7637 45.7194 62.0181 42.8188 83.1512 57.0456C91.9912 54.5594 101.384 53.3163 110.776 53.3163C120.169 53.3163 129.561 54.5594 138.401 57.0456C159.534 42.6806 168.789 45.7194 168.789 45.7194C174.866 60.9131 170.999 72.2394 169.894 75.0019C176.938 82.7369 181.22 92.5438 181.22 104.699C181.22 147.103 155.391 156.496 130.804 159.258C134.81 162.711 138.263 169.341 138.263 179.701C138.263 194.48 138.125 206.359 138.125 210.088C138.125 212.989 140.197 216.442 145.722 215.337C167.658 207.931 186.719 193.833 200.223 175.026C213.727 156.22 220.993 133.652 221 110.5C221 49.4488 171.551 0 110.5 0Z" fill="#597ede"/>
</svg>
