<svg width="81" height="81" viewBox="0 0 81 81" fill="none" xmlns="http://www.w3.org/2000/svg">
<path fill-rule="evenodd" clip-rule="evenodd" d="M3.375 9.57826C3.375 7.93305 4.02856 6.35523 5.19189 5.1919C6.35523 4.02856 7.93305 3.37501 9.57825 3.37501H71.415C72.2303 3.37368 73.0379 3.53317 73.7915 3.84436C74.5451 4.15555 75.2299 4.61232 75.8067 5.18852C76.3835 5.76472 76.841 6.44904 77.1531 7.20229C77.4651 7.95554 77.6254 8.76294 77.625 9.57826V71.415C77.6259 72.2305 77.466 73.0381 77.1544 73.7917C76.8428 74.5453 76.3858 75.2301 75.8093 75.8069C75.2328 76.3837 74.5483 76.8412 73.7948 77.1531C73.0414 77.4651 72.2338 77.6254 71.4184 77.625H9.57825C8.76334 77.625 7.95642 77.4644 7.20359 77.1525C6.45076 76.8405 5.76677 76.3833 5.1907 75.8069C4.61463 75.2305 4.15777 74.5463 3.84623 73.7933C3.53468 73.0403 3.37456 72.2333 3.375 71.4184V9.57826ZM32.7645 31.6845H42.8186V36.7335C44.2699 33.831 47.9824 31.2188 53.5612 31.2188C64.2566 31.2188 66.7912 37.0001 66.7912 47.6077V67.257H55.9676V50.0243C55.9676 43.983 54.5164 40.5743 50.8309 40.5743C45.7177 40.5743 43.5915 44.2496 43.5915 50.0243V67.257H32.7645V31.6845ZM14.202 66.7946H25.029V31.2188H14.202V66.7912V66.7946ZM26.5781 19.6155C26.5985 20.5425 26.4336 21.4643 26.0929 22.3267C25.7523 23.1891 25.2428 23.9748 24.5944 24.6376C23.946 25.3005 23.1717 25.8271 22.317 26.1866C21.4623 26.5462 20.5444 26.7314 19.6172 26.7314C18.6899 26.7314 17.772 26.5462 16.9173 26.1866C16.0626 25.8271 15.2884 25.3005 14.64 24.6376C13.9916 23.9748 13.4821 23.1891 13.1414 22.3267C12.8008 21.4643 12.6358 20.5425 12.6562 19.6155C12.6963 17.7959 13.4473 16.0643 14.7484 14.7916C16.0494 13.5188 17.7971 12.8062 19.6172 12.8062C21.4372 12.8062 23.1849 13.5188 24.486 14.7916C25.7871 16.0643 26.5381 17.7959 26.5781 19.6155Z" fill="#857CBA"/>
</svg>
