<svg width="203" height="203" viewBox="0 0 203 203" fill="none" xmlns="http://www.w3.org/2000/svg">
<path fill-rule="evenodd" clip-rule="evenodd" d="M0.208377 17.1333C0.208377 12.6445 1.99153 8.33963 5.16557 5.16559C8.33961 1.99155 12.6445 0.208397 17.1333 0.208397H185.848C188.073 0.204763 190.276 0.639926 192.332 1.48897C194.388 2.33801 196.257 3.58426 197.831 5.15637C199.404 6.72847 200.653 8.59556 201.504 10.6507C202.355 12.7059 202.793 14.9088 202.792 17.1333V185.848C202.794 188.073 202.358 190.277 201.508 192.333C200.658 194.389 199.411 196.258 197.838 197.831C196.265 199.405 194.397 200.653 192.342 201.504C190.286 202.355 188.082 202.793 185.858 202.792H17.1333C14.9099 202.792 12.7083 202.354 10.6543 201.502C8.60025 200.651 6.73406 199.404 5.16231 197.831C3.59057 196.259 2.34408 194.392 1.49407 192.337C0.64405 190.283 0.207167 188.081 0.208377 185.858V17.1333ZM80.3945 77.4479H107.826V91.2236C111.786 83.3044 121.915 76.1771 137.136 76.1771C166.317 76.1771 173.233 91.951 173.233 120.893V174.504H143.702V127.486C143.702 111.003 139.742 101.703 129.687 101.703C115.736 101.703 109.935 111.731 109.935 127.486V174.504H80.3945V77.4479ZM29.7487 173.242H59.289V76.1771H29.7487V173.233V173.242ZM63.5157 44.5189C63.5714 47.0482 63.1213 49.5631 62.1919 51.9161C61.2624 54.2691 59.8724 56.4127 58.1033 58.2212C56.3342 60.0297 54.2217 61.4666 51.8897 62.4476C49.5578 63.4286 47.0534 63.9339 44.5235 63.9339C41.9936 63.9339 39.4892 63.4286 37.1572 62.4476C34.8253 61.4666 32.7128 60.0297 30.9437 58.2212C29.1746 56.4127 27.7845 54.2691 26.8551 51.9161C25.9257 49.5631 25.4756 47.0482 25.5313 44.5189C25.6406 39.5543 27.6896 34.8298 31.2394 31.3573C34.7892 27.8848 39.5576 25.9403 44.5235 25.9403C49.4893 25.9403 54.2577 27.8848 57.8076 31.3573C61.3574 34.8298 63.4063 39.5543 63.5157 44.5189V44.5189Z" fill="#597ede"/>
</svg>
