<svg width="125" height="125" viewBox="0 0 125 125" fill="none" xmlns="http://www.w3.org/2000/svg">
<path d="M10.4167 125C10.4167 125 0 125 0 114.583C0 104.167 10.4167 72.9167 62.5 72.9167C114.583 72.9167 125 104.167 125 114.583C125 125 114.583 125 114.583 125H10.4167ZM62.5 62.5C70.788 62.5 78.7366 59.2076 84.5971 53.3471C90.4576 47.4866 93.75 39.538 93.75 31.25C93.75 22.962 90.4576 15.0134 84.5971 9.15291C78.7366 3.2924 70.788 0 62.5 0C54.212 0 46.2634 3.2924 40.4029 9.15291C34.5424 15.0134 31.25 22.962 31.25 31.25C31.25 39.538 34.5424 47.4866 40.4029 53.3471C46.2634 59.2076 54.212 62.5 62.5 62.5V62.5Z" fill="#597EDE"/>
</svg>
