<svg width="125" height="100" viewBox="0 0 125 100" fill="none" xmlns="http://www.w3.org/2000/svg">
<g clip-path="url(#clip0)">
<path d="M54.4748 99.8991L42.5608 96.4421C41.3108 96.0905 40.6076 94.7819 40.9592 93.5319L67.6193 1.69599C67.9709 0.445986 69.2794 -0.257139 70.5294 0.094424L82.4435 3.55146C83.6935 3.90302 84.3966 5.21161 84.045 6.46161L57.3849 98.2976C57.0138 99.5476 55.7248 100.27 54.4748 99.8991V99.8991ZM32.2092 77.9851L40.7053 68.9226C41.6037 67.9655 41.5451 66.4421 40.549 65.5632L22.8538 49.9968L40.549 34.4304C41.5451 33.5515 41.6233 32.028 40.7053 31.071L32.2092 22.0085C31.3303 21.071 29.8459 21.0124 28.8889 21.9108L0.744444 48.278C-0.251647 49.196 -0.251647 50.778 0.744444 51.696L28.8889 78.0827C29.8459 78.9811 31.3303 78.9421 32.2092 77.9851V77.9851ZM96.1153 78.1022L124.26 51.7155C125.256 50.7976 125.256 49.2155 124.26 48.2976L96.1153 21.8913C95.1778 21.0124 93.6935 21.0515 92.795 21.989L84.2989 31.0515C83.4005 32.0085 83.4591 33.5319 84.4552 34.4108L102.15 49.9968L84.4552 65.5632C83.4591 66.4421 83.381 67.9655 84.2989 68.9226L92.795 77.9851C93.6739 78.9421 95.1583 78.9811 96.1153 78.1022V78.1022Z" fill="white"/>
</g>
<defs>
<clipPath id="clip0">
<rect width="125" height="100" fill="white"/>
</clipPath>
</defs>
</svg>
